<?xml version="1.0" encoding="UTF-8"?>
<svg viewBox="0 0 260 140" xmlns="http://www.w3.org/2000/svg">
<g>
<title>background</title>
<rect x="-1" y="-1" width="262" height="142" fill="#fff"/>
<g x="0" y="0" display="none" overflow="visible">
<rect width="100%" height="100%" fill="url(#gridpattern)" stroke-width="0"/>
</g>
</g>
<g>
<title>Layer 1</title>
<defs>
<style>.a{clip-path:url(#a);}.b{fill:#c00;}.c{fill:#939598;}.d{fill:#f6482e;}.e{fill:#99c750;}.f{fill:#fff;}</style>
</defs>
<g stroke="null">
<g class="a" transform="matrix(1.0115 0 0 1.0115 -.00021347 -9.3392e-5)" stroke="null">
<rect class="f" x="-2.636" y="-499.57" width="360" height="640"/>
<g transform="rotate(-90 -317.77 -76.704)" stroke="null">
<path class="b" transform="rotate(180 -74.466 562.91)" d="m-74.466 562.91h62.731s5.488 0.488 5.139 8.3 0 60.849 0 60.849h-61.736s-6.134-0.886-6.134-6.44v-62.709z"/>
<path class="c" transform="rotate(180 -2.7961 526.23)" d="m-2.796 526.23h29.976s2.624 0.234 2.456 3.965 0 29.077 0 29.077h-29.501s-2.931-0.422-2.931-3.077v-29.965z"/>
<path class="d" transform="rotate(180 -38.206 526.23)" d="m-38.206 526.23h29.976s2.624 0.234 2.456 3.965 0 29.077 0 29.077h-29.501s-2.931-0.422-2.931-3.077v-29.965z"/>
<path class="d" transform="rotate(180 -2.8161 598.33)" d="m-2.816 598.33h62.731s5.488 0.488 5.139 8.3 0 60.849 0 60.849h-61.736s-6.134-0.886-6.134-6.44v-62.709z"/>
<path class="e" transform="rotate(180 -74.446 598.3)" d="m-74.446 598.3h29.976s2.624 0.234 2.456 3.965 0 29.077 0 29.077h-29.501s-2.931-0.422-2.931-3.077v-29.965z"/>
<path class="e" transform="rotate(180 -146.11 526.23)" d="m-146.11 526.23h29.976s2.624 0.234 2.456 3.965 0 29.077 0 29.077h-29.501s-2.931-0.422-2.931-3.077v-29.965z"/>
<path class="c" transform="rotate(180 -110.69 598.3)" d="m-110.69 598.3h29.976s2.624 0.234 2.456 3.965 0 29.077 0 29.077h-29.501s-2.931-0.422-2.931-3.077v-29.965z"/>
<path class="d" transform="rotate(180 -146.11 598.3)" d="m-146.11 598.3h29.976s2.624 0.234 2.456 3.965 0 29.077 0 29.077h-29.501s-2.931-0.422-2.931-3.077v-29.965z"/>
<path class="b" transform="rotate(180 -182.34 598.3)" d="m-182.34 598.3h29.976s2.624 0.234 2.456 3.965 0 29.077 0 29.077h-29.501s-2.931-0.422-2.931-3.077v-29.965z"/>
<path class="c" transform="rotate(180 -38.206 490.4)" d="m-38.206 490.4h29.976s2.624 0.234 2.456 3.965 0 29.077 0 29.077h-29.501s-2.931-0.422-2.931-3.077v-29.965z"/>
<path class="e" transform="rotate(180 -74.446 490.4)" d="m-74.446 490.4h29.976s2.624 0.234 2.456 3.965 0 29.077 0 29.077h-29.501s-2.931-0.422-2.931-3.077v-29.965z"/>
<path class="c" transform="rotate(180 -110.69 490.4)" d="m-110.69 490.4h29.976s2.624 0.234 2.456 3.965 0 29.077 0 29.077h-29.501s-2.931-0.422-2.931-3.077v-29.965z"/>
<path class="b" transform="rotate(180 -74.446 454.17)" d="m-74.446 454.17h29.976s2.624 0.234 2.456 3.965 0 29.077 0 29.077h-29.501s-2.931-0.422-2.931-3.077v-29.965z"/>
<path class="c" transform="rotate(180 105.1 526.23)" d="m105.1 526.23h29.976s2.624 0.234 2.456 3.965 0 29.077 0 29.077h-29.501s-2.931-0.422-2.931-3.077v-29.965z"/>
<path class="e" transform="rotate(180 105.08 562.09)" d="m105.08 562.09h29.826s2.609 0.232 2.444 3.945 0 28.932 0 28.932h-29.354s-2.916-0.42-2.916-3.061v-29.816z"/>
<path class="d" transform="rotate(180 105.1 598.3)" d="m105.1 598.3h29.976s2.624 0.234 2.456 3.965 0 29.077 0 29.077h-29.501s-2.931-0.422-2.931-3.077v-29.965z"/>
<path class="b" transform="rotate(180 105.1 490.4)" d="m105.1 490.4h29.976s2.624 0.234 2.456 3.965 0 29.077 0 29.077h-29.501s-2.931-0.422-2.931-3.077v-29.965z"/>
<path class="d" transform="rotate(180 105.1 454.17)" d="m105.1 454.17h29.976s2.624 0.234 2.456 3.965 0 29.077 0 29.077h-29.501s-2.931-0.422-2.931-3.077v-29.965z"/>
<path class="e" transform="rotate(180 68.844 525.85)" d="m68.844 525.85h62.731s5.488 0.488 5.139 8.3 0 60.849 0 60.849h-61.736s-6.134-0.886-6.134-6.44v-62.709z"/>
<path class="c" transform="rotate(180 69.684 454.17)" d="m69.684 454.17h29.976s2.624 0.234 2.456 3.965 0 29.077 0 29.077h-29.501s-2.931-0.422-2.931-3.077v-29.965z"/>
<path class="c" transform="rotate(180 69.664 562.09)" d="m69.664 562.09h29.826s2.609 0.232 2.444 3.945 0 28.932 0 28.932h-29.354s-2.916-0.42-2.916-3.061v-29.816z"/>
<path class="c" transform="rotate(180 69.684 598.3)" d="m69.684 598.3h29.976s2.624 0.234 2.456 3.965 0 29.077 0 29.077h-29.501s-2.931-0.422-2.931-3.077v-29.965z"/>
<path class="b" transform="rotate(180 33.424 562.09)" d="m33.424 562.09h29.826s2.609 0.232 2.444 3.945 0 28.932 0 28.932h-29.354s-2.916-0.42-2.916-3.061v-29.816z"/>
<path class="e" transform="rotate(180 33.444 598.3)" d="m33.444 598.3h29.976s2.624 0.234 2.456 3.965 0 29.077 0 29.077h-29.501s-2.931-0.422-2.931-3.077v-29.965z"/>
</g>
<g transform="rotate(180 354.2 638.73)">
<path class="b" transform="rotate(180 567.94 1220)" d="m567.94 1275.2h49.517s4.332-0.39 4.057-6.621 0-48.553 0-48.553h-48.732s-4.842 0.7-4.842 5.137v50.037z"/>
<path class="c" transform="rotate(180 624.52 1220.4)" d="m624.52 1246.8h23.662s2.069-0.187 1.938-3.164 0-23.202 0-23.202h-23.286s-2.314 0.337-2.314 2.456v23.91z"/>
<path class="d" transform="rotate(180 596.56 1220.4)" d="m596.56 1246.8h23.662s2.069-0.187 1.938-3.164 0-23.202 0-23.202h-23.286s-2.314 0.337-2.314 2.456v23.91z"/>
<path class="d" transform="rotate(180 624.5 1191.7)" d="m624.5 1246.9h49.517s4.332-0.39 4.057-6.621 0-48.553 0-48.553h-48.732s-4.842 0.7-4.842 5.137v50.037z"/>
<path class="e" transform="rotate(180 567.96 1162.9)" d="m567.96 1189.3h23.662s2.069-0.187 1.938-3.164 0-23.202 0-23.202h-23.286s-2.314 0.337-2.314 2.456v23.91z"/>
<path class="e" transform="rotate(180 511.4 1220.4)" d="m511.4 1246.8h23.662s2.069-0.187 1.938-3.164 0-23.202 0-23.202h-23.286s-2.314 0.337-2.314 2.456v23.91z"/>
<path class="c" transform="rotate(180 539.35 1162.9)" d="m539.35 1189.3h23.662s2.069-0.187 1.938-3.164 0-23.202 0-23.202h-23.286s-2.314 0.337-2.314 2.456v23.91z"/>
<path class="d" transform="rotate(180 511.4 1162.9)" d="m511.4 1189.3h23.662s2.069-0.187 1.938-3.164 0-23.202 0-23.202h-23.286s-2.314 0.337-2.314 2.456v23.91z"/>
<path class="b" transform="rotate(180 482.79 1162.9)" d="m482.79 1189.3h23.662s2.069-0.187 1.938-3.164 0-23.202 0-23.202h-23.286s-2.314 0.337-2.314 2.456v23.91z"/>
<path class="c" transform="rotate(180 596.56 1249)" d="m596.56 1275.4h23.662s2.069-0.187 1.938-3.164 0-23.202 0-23.202h-23.286s-2.314 0.337-2.314 2.456v23.91z"/>
<path class="e" transform="rotate(180 567.96 1249)" d="m567.96 1275.4h23.662s2.069-0.187 1.938-3.164 0-23.202 0-23.202h-23.286s-2.314 0.337-2.314 2.456v23.91z"/>
<path class="c" transform="rotate(180 539.35 1249)" d="m539.35 1275.4h23.662s2.069-0.187 1.938-3.164 0-23.202 0-23.202h-23.286s-2.314 0.337-2.314 2.456v23.91z"/>
<path class="b" transform="rotate(180 567.96 1277.9)" d="m567.96 1304.3h23.662s2.069-0.187 1.938-3.164 0-23.202 0-23.202h-23.286s-2.314 0.337-2.314 2.456v23.91z"/>
<path class="c" transform="rotate(180 709.68 1220.4)" d="m709.68 1246.8h23.662s2.069-0.187 1.938-3.164 0-23.202 0-23.202h-23.286s-2.314 0.337-2.314 2.456v23.91z"/>
<path class="e" transform="rotate(180 709.67 1191.7)" d="m709.67 1217.9h23.543s2.06-0.185 1.929-3.148 0-23.085 0-23.085h-23.172s-2.3 0.335-2.3 2.442v23.791z"/>
<path class="d" transform="rotate(180 709.68 1162.9)" d="m709.68 1189.3h23.662s2.069-0.187 1.938-3.164 0-23.202 0-23.202h-23.286s-2.314 0.337-2.314 2.456v23.91z"/>
<path class="b" transform="rotate(180 709.68 1249)" d="m709.68 1275.4h23.662s2.069-0.187 1.938-3.164 0-23.202 0-23.202h-23.286s-2.314 0.337-2.314 2.456v23.91z"/>
<path class="d" transform="rotate(180 709.68 1277.9)" d="m709.68 1304.3h23.662s2.069-0.187 1.938-3.164 0-23.202 0-23.202h-23.286s-2.314 0.337-2.314 2.456v23.91z"/>
<path class="e" transform="rotate(180 681.06 1249.6)" d="m681.06 1304.7h49.517s4.332-0.39 4.057-6.621 0-48.553 0-48.553h-48.732s-4.842 0.7-4.842 5.137v50.037z"/>
<path class="c" transform="rotate(180 681.73 1277.9)" d="m681.73 1304.3h23.662s2.069-0.187 1.938-3.164 0-23.202 0-23.202h-23.286s-2.314 0.337-2.314 2.456v23.91z"/>
<path class="c" transform="rotate(180 681.71 1191.7)" d="m681.71 1217.9h23.543s2.06-0.185 1.929-3.148 0-23.085 0-23.085h-23.172s-2.3 0.335-2.3 2.442v23.791z"/>
<path class="c" transform="rotate(180 681.73 1162.9)" d="m681.73 1189.3h23.662s2.069-0.187 1.938-3.164 0-23.202 0-23.202h-23.286s-2.314 0.337-2.314 2.456v23.91z"/>
<path class="b" transform="rotate(180 653.11 1191.7)" d="m653.11 1217.9h23.543s2.06-0.185 1.929-3.148 0-23.085 0-23.085h-23.172s-2.3 0.335-2.3 2.442v23.791z"/>
<path class="e" transform="rotate(180 653.12 1162.9)" d="m653.12 1189.3h23.662s2.069-0.187 1.938-3.164 0-23.202 0-23.202h-23.286s-2.314 0.337-2.314 2.456v23.91z"/>
</g>
</g>
</g>
</g>
</svg>
