<?xml version="1.0"?>
<svg xmlns="http://www.w3.org/2000/svg" width="20.402" height="21.073" viewBox="0 0 20.402 21.073">
  <path id="google-maps" d="M13.328,12.647l8.425,8.425H4.9Zm9.311-3.056v10.6l-8.425-8.425L15.9,10.079l-.1-.118c-.228-.278-.463-.565-.69-.868L4.017,20.187V2.868a.418.418,0,0,1,.418-.418H14.576a5.347,5.347,0,0,1,9.843,2.9A6.521,6.521,0,0,1,22.639,9.591ZM12.231,6.717H9.136V7.9h1.823A1.916,1.916,0,1,1,9.136,5.391a1.9,1.9,0,0,1,1.167.4l.719-.934a3.066,3.066,0,0,0-1.886-.641,3.095,3.095,0,1,0,3.095,3.095v-.59ZM23.166,5.35a4.1,4.1,0,0,0-8.194,0c0,3.4,3.846,4.376,3.846,8.429h.5C19.32,9.726,23.166,8.751,23.166,5.35Zm-4.1-1.874a1.6,1.6,0,1,0,1.6,1.6A1.6,1.6,0,0,0,19.069,3.476Z" transform="translate(-4.017)" fill="#fff"/>
</svg>
