<?xml version="1.0" encoding="UTF-8"?>
<svg viewBox="0 0 32 62" xmlns="http://www.w3.org/2000/svg">
<path transform="translate(0 62)" d="M27.32-34.69C25.03-32.4,17-26.189,17-19v3c0,3.05,2.54,5.056,3.24,5.756A5.944,5.944,0,0,1,22-6a6,6,0,0,1-6,6,6,6,0,0,1-6-6,5.977,5.977,0,0,1,1.75-4.24C12.46-10.94,15-12.946,15-16v-3c0-7.19-8.03-13.4-10.32-15.691A15.946,15.946,0,0,1,0-46,16,16,0,0,1,16-62,16,16,0,0,1,32-46,15.946,15.946,0,0,1,27.32-34.69Z" fill="#99c750" fill-rule="evenodd" data-name="Path 1791"/>
</svg>
