<?xml version="1.0"?>
<svg xmlns="http://www.w3.org/2000/svg" width="21.86" height="19.68" viewBox="0 0 21.86 19.68">
  <g id="waze" transform="translate(-15.148 -23.612)">
    <path id="Path_2193" data-name="Path 2193" d="M84.626,69.389a1.1,1.1,0,1,1-1.1-1.1,1.1,1.1,0,0,1,1.1,1.1" transform="translate(-58.61 -38.922)" fill="#fff"/>
    <path id="Path_2194" data-name="Path 2194" d="M124.542,69.389a1.1,1.1,0,1,1-1.1-1.1,1.1,1.1,0,0,1,1.1,1.1" transform="translate(-93.385 -38.922)" fill="#fff"/>
    <path id="Path_2195" data-name="Path 2195" d="M84.492,98.943A3.848,3.848,0,0,1,80.64,96.12a.573.573,0,1,1,1.125-.217A2.729,2.729,0,0,0,84.574,97.8a2.827,2.827,0,0,0,2.81-1.879.573.573,0,0,1,1.116.262A3.385,3.385,0,0,1,87.164,98.1a4.506,4.506,0,0,1-2.559.84l-.112,0" transform="translate(-57.046 -62.575)" fill="#fff"/>
    <path id="Path_2196" data-name="Path 2196" d="M36.895,31.065a8.253,8.253,0,0,0-1.477-3.485,9.542,9.542,0,0,0-3.433-2.895,10.036,10.036,0,0,0-4.5-1.074,9.824,9.824,0,0,0-1.309.088,10.447,10.447,0,0,0-5.005,2.118,7.923,7.923,0,0,0-2.985,4.7A15.025,15.025,0,0,0,18,32.224a7.72,7.72,0,0,1-.425,2.441c-.2.416-.488.693-1.278.693a1.146,1.146,0,0,0-.915,1.836A9.136,9.136,0,0,0,19.757,40.3a2.271,2.271,0,1,0,4.424.806c.533.029,3.07.036,3.353.028a2.271,2.271,0,1,0,4.388-.931,9.722,9.722,0,0,0,2.466-1.723,8.31,8.31,0,0,0,2.173-3.351,8.416,8.416,0,0,0,.334-4.069m-14.982,10.7a.75.75,0,1,1,.75-.75.75.75,0,0,1-.75.75m7.888,0a.75.75,0,1,1,.75-.75.75.75,0,0,1-.75.75m5.671-6.993a7.973,7.973,0,0,1-4.23,4.487,2.271,2.271,0,0,0-3.463.721c-.383.016-3.238.006-3.862-.037a2.269,2.269,0,0,0-3.507-.63A8.124,8.124,0,0,1,16.295,36.5c3.241,0,2.6-3.622,3.021-5.77.639-3.273,3.877-5.474,7.019-5.9a8.64,8.64,0,0,1,1.155-.078c5.164,0,9.761,4.611,7.982,10.018" fill="#fff"/>
  </g>
</svg>

